<svg width="180" height="180" viewBox="0 0 180 180" fill="none" xmlns="http://www.w3.org/2000/svg">
<g clip-path="url(#clip0_517_156)">
<path d="M172.09 0H145.02C144.32 0 143.65 0.277796 143.155 0.772277C142.661 1.26676 142.383 1.93742 142.383 2.63672C142.383 3.33602 142.661 4.00668 143.155 4.50116C143.65 4.99564 144.32 5.27344 145.02 5.27344H172.09C172.789 5.2742 173.459 5.55224 173.953 6.04656C174.448 6.54087 174.726 7.21109 174.727 7.91016V34.9805C174.727 35.6798 175.004 36.3504 175.499 36.8449C175.993 37.3394 176.664 37.6172 177.363 37.6172C178.063 37.6172 178.733 37.3394 179.228 36.8449C179.722 36.3504 180 35.6798 180 34.9805V7.91016C179.998 5.81297 179.164 3.80236 177.681 2.31942C176.198 0.836491 174.187 0.00234769 172.09 0V0ZM2.63672 37.6172C3.33602 37.6172 4.00667 37.3394 4.50115 36.8449C4.99563 36.3504 5.27343 35.6798 5.27344 34.9805V7.91016C5.2742 7.21109 5.55224 6.54087 6.04656 6.04656C6.54087 5.55224 7.21109 5.2742 7.91016 5.27344H34.9805C35.6798 5.27344 36.3504 4.99564 36.8449 4.50116C37.3394 4.00668 37.6172 3.33602 37.6172 2.63672C37.6172 1.93742 37.3394 1.26676 36.8449 0.772277C36.3504 0.277796 35.6798 0 34.9805 0L7.91016 0C5.81297 0.00234769 3.80236 0.836491 2.31942 2.31942C0.836491 3.80236 0.00234769 5.81297 0 7.91016L0 34.9805C5.59433e-06 35.6798 0.277804 36.3504 0.772283 36.8449C1.26676 37.3394 1.93742 37.6172 2.63672 37.6172ZM177.363 142.383C176.664 142.383 175.993 142.661 175.499 143.155C175.004 143.65 174.727 144.32 174.727 145.02V172.09C174.726 172.789 174.448 173.459 173.953 173.953C173.459 174.448 172.789 174.726 172.09 174.727H145.02C144.32 174.727 143.65 175.004 143.155 175.499C142.661 175.993 142.383 176.664 142.383 177.363C142.383 178.063 142.661 178.733 143.155 179.228C143.65 179.722 144.32 180 145.02 180H172.09C174.187 179.998 176.198 179.164 177.681 177.681C179.164 176.198 179.998 174.187 180 172.09V145.02C180 144.32 179.722 143.65 179.228 143.155C178.733 142.661 178.063 142.383 177.363 142.383V142.383ZM34.9805 174.727H7.91016C7.21109 174.726 6.54087 174.448 6.04656 173.953C5.55224 173.459 5.2742 172.789 5.27344 172.09V145.02C5.27344 144.32 4.99564 143.65 4.50116 143.155C4.00668 142.661 3.33602 142.383 2.63672 142.383C1.93742 142.383 1.26676 142.661 0.772277 143.155C0.277796 143.65 0 144.32 0 145.02L0 172.09C0.00234769 174.187 0.836491 176.198 2.31942 177.681C3.80236 179.164 5.81297 179.998 7.91016 180H34.9805C35.6798 180 36.3504 179.722 36.8449 179.228C37.3394 178.733 37.6172 178.063 37.6172 177.363C37.6172 176.664 37.3394 175.993 36.8449 175.499C36.3504 175.004 35.6798 174.727 34.9805 174.727ZM26.3672 39.5508V66.6211C26.3711 70.1164 27.7614 73.4674 30.2329 75.939C32.7045 78.4105 36.0555 79.8008 39.5508 79.8047H66.6211C70.1164 79.8008 73.4674 78.4105 75.939 75.939C78.4105 73.4674 79.8008 70.1164 79.8047 66.6211V39.5508C79.8008 36.0555 78.4105 32.7045 75.939 30.2329C73.4674 27.7614 70.1164 26.3711 66.6211 26.3672H39.5508C36.0555 26.3711 32.7045 27.7614 30.2329 30.2329C27.7614 32.7045 26.3711 36.0555 26.3672 39.5508V39.5508ZM31.6406 39.5508C31.643 37.4536 32.4771 35.443 33.96 33.96C35.443 32.4771 37.4536 31.643 39.5508 31.6406H66.6211C68.7183 31.643 70.7289 32.4771 72.2118 33.96C73.6948 35.443 74.5289 37.4536 74.5312 39.5508V66.6211C74.5289 68.7183 73.6948 70.7289 72.2118 72.2118C70.7289 73.6948 68.7183 74.5289 66.6211 74.5312H39.5508C37.4536 74.5289 35.443 73.6948 33.96 72.2118C32.4771 70.7289 31.643 68.7183 31.6406 66.6211V39.5508ZM46.582 61.3477H59.5898C60.056 61.3477 60.5032 61.1625 60.8328 60.8328C61.1625 60.5032 61.3477 60.056 61.3477 59.5898V46.582C61.3477 46.1158 61.1625 45.6687 60.8328 45.3391C60.5032 45.0094 60.056 44.8242 59.5898 44.8242H46.582C46.1158 44.8242 45.6687 45.0094 45.3391 45.3391C45.0094 45.6687 44.8242 46.1158 44.8242 46.582V59.5898C44.8242 60.056 45.0094 60.5032 45.3391 60.8328C45.6687 61.1625 46.1158 61.3477 46.582 61.3477V61.3477ZM113.379 79.8047H140.449C143.945 79.8008 147.296 78.4105 149.767 75.939C152.239 73.4674 153.629 70.1164 153.633 66.6211V39.5508C153.629 36.0555 152.239 32.7045 149.767 30.2329C147.296 27.7614 143.945 26.3711 140.449 26.3672H113.379C109.884 26.3711 106.533 27.7614 104.061 30.2329C101.589 32.7045 100.199 36.0555 100.195 39.5508V66.6211C100.199 70.1164 101.589 73.4674 104.061 75.939C106.533 78.4105 109.884 79.8008 113.379 79.8047V79.8047ZM105.469 39.5508C105.471 37.4536 106.305 35.443 107.788 33.96C109.271 32.4771 111.282 31.643 113.379 31.6406H140.449C142.546 31.643 144.557 32.4771 146.04 33.96C147.523 35.443 148.357 37.4536 148.359 39.5508V66.6211C148.357 68.7183 147.523 70.7289 146.04 72.2118C144.557 73.6948 142.546 74.5289 140.449 74.5312H113.379C111.282 74.5289 109.271 73.6948 107.788 72.2118C106.305 70.7289 105.471 68.7183 105.469 66.6211V39.5508ZM120.41 61.3477H133.418C133.884 61.3477 134.331 61.1625 134.661 60.8328C134.991 60.5032 135.176 60.056 135.176 59.5898V46.582C135.176 46.1158 134.991 45.6687 134.661 45.3391C134.331 45.0094 133.884 44.8242 133.418 44.8242H120.41C119.944 44.8242 119.497 45.0094 119.167 45.3391C118.838 45.6687 118.652 46.1158 118.652 46.582V59.5898C118.652 60.056 118.838 60.5032 119.167 60.8328C119.497 61.1625 119.944 61.3477 120.41 61.3477V61.3477ZM132.539 105.469V100.195H127.266V105.469H132.539ZM137.812 131.836H143.086V126.562H137.812V131.836ZM127.266 126.562H121.992V131.836H127.266V126.562ZM121.992 110.742H127.266V105.469H121.992V110.742ZM87.3633 74.5312V79.8047H92.6367V74.5312H87.3633ZM153.633 150.645V134.824C153.633 134.125 153.355 133.454 152.861 132.96C152.366 132.465 151.695 132.188 150.996 132.188H146.777C146.078 132.188 145.407 132.465 144.913 132.96C144.418 133.454 144.141 134.125 144.141 134.824C144.141 135.524 144.418 136.194 144.913 136.689C145.407 137.183 146.078 137.461 146.777 137.461H148.359V148.008H114.082C113.383 148.008 112.712 148.286 112.218 148.78C111.723 149.275 111.445 149.945 111.445 150.645C111.445 151.344 111.723 152.014 112.218 152.509C112.712 153.003 113.383 153.281 114.082 153.281H150.996C151.695 153.281 152.366 153.003 152.861 152.509C153.355 152.014 153.633 151.344 153.633 150.645ZM113.379 121.641H140.449C141.149 121.641 141.819 121.363 142.314 120.868C142.808 120.374 143.086 119.703 143.086 119.004C143.086 118.305 142.808 117.634 142.314 117.139C141.819 116.645 141.149 116.367 140.449 116.367H113.379C112.68 116.367 112.009 116.645 111.514 117.139C111.02 117.634 110.742 118.305 110.742 119.004C110.742 119.703 111.02 120.374 111.514 120.868C112.009 121.363 112.68 121.641 113.379 121.641ZM123.926 142.734H135.176C135.875 142.734 136.546 142.457 137.04 141.962C137.535 141.468 137.812 140.797 137.812 140.098C137.812 139.398 137.535 138.728 137.04 138.233C136.546 137.739 135.875 137.461 135.176 137.461H123.926C123.226 137.461 122.556 137.739 122.061 138.233C121.567 138.728 121.289 139.398 121.289 140.098C121.289 140.797 121.567 141.468 122.061 141.962C122.556 142.457 123.226 142.734 123.926 142.734ZM59.5898 118.652H46.582C46.1158 118.652 45.6687 118.838 45.3391 119.167C45.0094 119.497 44.8242 119.944 44.8242 120.41V133.418C44.8242 133.884 45.0094 134.331 45.3391 134.661C45.6687 134.991 46.1158 135.176 46.582 135.176H59.5898C60.056 135.176 60.5032 134.991 60.8328 134.661C61.1625 134.331 61.3477 133.884 61.3477 133.418V120.41C61.3477 119.944 61.1625 119.497 60.8328 119.167C60.5032 118.838 60.056 118.652 59.5898 118.652ZM66.6211 100.195H39.5508C36.0555 100.199 32.7045 101.589 30.2329 104.061C27.7614 106.533 26.3711 109.884 26.3672 113.379V140.449C26.3711 143.945 27.7614 147.296 30.2329 149.767C32.7045 152.239 36.0555 153.629 39.5508 153.633H66.6211C70.1164 153.629 73.4674 152.239 75.939 149.767C78.4105 147.296 79.8008 143.945 79.8047 140.449V113.379C79.8008 109.884 78.4105 106.533 75.939 104.061C73.4674 101.589 70.1164 100.199 66.6211 100.195V100.195ZM74.5312 140.449C74.5289 142.546 73.6948 144.557 72.2118 146.04C70.7289 147.523 68.7183 148.357 66.6211 148.359H39.5508C37.4536 148.357 35.443 147.523 33.96 146.04C32.4771 144.557 31.643 142.546 31.6406 140.449V113.379C31.643 111.282 32.4771 109.271 33.96 107.788C35.443 106.305 37.4536 105.471 39.5508 105.469H66.6211C68.7183 105.471 70.7289 106.305 72.2118 107.788C73.6948 109.271 74.5289 111.282 74.5312 113.379V140.449ZM90 116.016C89.3007 116.016 88.63 116.293 88.1356 116.788C87.6411 117.282 87.3633 117.953 87.3633 118.652V150.996C87.3633 151.695 87.6411 152.366 88.1356 152.861C88.63 153.355 89.3007 153.633 90 153.633C90.6993 153.633 91.37 153.355 91.8644 152.861C92.3589 152.366 92.6367 151.695 92.6367 150.996V118.652C92.6367 117.953 92.3589 117.282 91.8644 116.788C91.37 116.293 90.6993 116.016 90 116.016V116.016ZM87.3633 105.469H92.6367V100.195H87.3633V105.469ZM100.195 153.281H105.469V148.008H100.195V153.281ZM102.832 100.195C102.133 100.195 101.462 100.473 100.968 100.968C100.473 101.462 100.195 102.133 100.195 102.832V135.176C100.195 135.875 100.473 136.546 100.968 137.04C101.462 137.535 102.133 137.812 102.832 137.812C103.531 137.812 104.202 137.535 104.696 137.04C105.191 136.546 105.469 135.875 105.469 135.176V102.832C105.469 102.133 105.191 101.462 104.696 100.968C104.202 100.473 103.531 100.195 102.832 100.195V100.195ZM111.445 128.848V140.098C111.445 140.797 111.723 141.468 112.218 141.962C112.712 142.457 113.383 142.734 114.082 142.734C114.781 142.734 115.452 142.457 115.946 141.962C116.441 141.468 116.719 140.797 116.719 140.098V128.848C116.719 128.148 116.441 127.478 115.946 126.983C115.452 126.489 114.781 126.211 114.082 126.211C113.383 126.211 112.712 126.489 112.218 126.983C111.723 127.478 111.445 128.148 111.445 128.848ZM150.996 121.992C151.695 121.992 152.366 121.714 152.861 121.22C153.355 120.725 153.633 120.055 153.633 119.355V102.832C153.633 102.133 153.355 101.462 152.861 100.968C152.366 100.473 151.695 100.195 150.996 100.195H140.788C140.089 100.195 139.418 100.473 138.924 100.968C138.429 101.462 138.152 102.133 138.152 102.832C138.152 103.531 138.429 104.202 138.924 104.696C139.418 105.191 140.089 105.469 140.788 105.469H148.359V119.355C148.359 120.055 148.637 120.725 149.132 121.22C149.626 121.714 150.297 121.992 150.996 121.992V121.992ZM83.9362 31.6406H87.3633V66.6211C87.3633 67.3204 87.6411 67.9911 88.1356 68.4855C88.63 68.98 89.3007 69.2578 90 69.2578C90.6993 69.2578 91.37 68.98 91.8644 68.4855C92.3589 67.9911 92.6367 67.3204 92.6367 66.6211V29.0039C92.6367 28.3046 92.3589 27.634 91.8644 27.1395C91.37 26.645 90.6993 26.3672 90 26.3672H83.9362C83.2369 26.3672 82.5663 26.645 82.0718 27.1395C81.5773 27.6339 81.2995 28.3046 81.2995 29.0039C81.2995 29.7032 81.5773 30.3739 82.0718 30.8683C82.5663 31.3628 83.2369 31.6406 83.9362 31.6406ZM169.102 90C169.102 89.3007 168.824 88.63 168.329 88.1356C167.835 87.6411 167.164 87.3633 166.465 87.3633H13.5352C12.8359 87.3633 12.1652 87.6411 11.6707 88.1356C11.1762 88.63 10.8984 89.3007 10.8984 90C10.8984 90.6993 11.1762 91.37 11.6707 91.8644C12.1652 92.3589 12.8359 92.6367 13.5352 92.6367H166.465C167.164 92.6367 167.835 92.3589 168.329 91.8644C168.824 91.37 169.102 90.6993 169.102 90V90Z" fill="white"/>
</g>
<defs>
<clipPath id="clip0_517_156">
<rect width="180" height="180" fill="white"/>
</clipPath>
</defs>
</svg>
